<svg width="74" height="74" viewBox="0 0 74 74" fill="none" xmlns="http://www.w3.org/2000/svg">
<path d="M9.66703 14.2693C21.0425 -4.68457 42.2696 -3.01007 59.7839 9.10961C77.2983 21.2293 77.6229 39.9258 66.2474 58.8796C54.8719 77.8334 29.5282 77.6763 12.0139 65.5566C-5.50048 53.437 -1.70847 33.2231 9.66703 14.2693Z" fill="#F4F8F9"/>
<path d="M52.267 58.9998H22.0953C20.9383 58.9998 20 58.0615 20 56.9045V35.1138C20 33.9568 20.9383 33.0186 22.0953 33.0186H52.267C53.424 33.0186 54.3622 33.9568 54.3622 35.1138V56.9045C54.3622 58.0615 53.424 58.9998 52.267 58.9998Z" fill="#F5B31A"/>
<path d="M22.0953 33.0186C20.9383 33.0186 20 33.9568 20 35.1138V46.0092H54.3622V35.1138C54.3622 33.9568 53.424 33.0186 52.267 33.0186H22.0953Z" fill="#FFC700"/>
<path d="M37.1805 38.8853C35.2912 38.8853 33.4792 39.6358 32.1432 40.9718C30.8072 42.3078 30.0566 44.1198 30.0566 46.0091C30.0566 47.8985 30.8072 49.7105 32.1432 51.0465C33.4792 52.3825 35.2912 53.133 37.1805 53.133C39.0699 53.133 40.8819 52.3825 42.2179 51.0465C43.5539 49.7105 44.3044 47.8985 44.3044 46.0091C44.3044 44.1198 43.5539 42.3078 42.2179 40.9718C40.8819 39.6358 39.0699 38.8853 37.1805 38.8853Z" fill="#F4F8F9"/>
<path d="M37.1805 42.6584C36.2914 42.6584 35.4387 43.0116 34.81 43.6403C34.1813 44.269 33.8281 45.1217 33.8281 46.0109C33.8281 46.9 34.1813 47.7527 34.81 48.3814C35.4387 49.0101 36.2914 49.3633 37.1805 49.3633C38.0697 49.3633 38.9224 49.0101 39.5511 48.3814C40.1798 47.7527 40.533 46.9 40.533 46.0109C40.533 45.1217 40.1798 44.269 39.5511 43.6403C38.9224 43.0116 38.0697 42.6584 37.1805 42.6584Z" fill="#01517F"/>
<path fill-rule="evenodd" clip-rule="evenodd" d="M52.267 61.4998H22.0953C19.5575 61.4998 17.5 59.4422 17.5 56.9045V35.1138C17.5 32.5761 19.5575 30.5186 22.0953 30.5186H52.267C54.8047 30.5186 56.8622 32.5761 56.8622 35.1138V56.9045C56.8622 59.4422 54.8047 61.4998 52.267 61.4998ZM22.0953 58.9998H52.267C53.424 58.9998 54.3622 58.0615 54.3622 56.9045V35.1138C54.3622 33.9568 53.424 33.0186 52.267 33.0186H22.0953C20.9383 33.0186 20 33.9568 20 35.1138V56.9045C20 58.0615 20.9383 58.9998 22.0953 58.9998Z" fill="#01517F"/>
<path fill-rule="evenodd" clip-rule="evenodd" d="M34.718 38.0047C35.497 37.7653 36.3243 37.6353 37.1805 37.6353C41.8054 37.6353 45.5544 41.3843 45.5544 46.0091C45.5544 50.634 41.8054 54.383 37.1805 54.383C32.5557 54.383 28.8066 50.634 28.8066 46.0091C28.8066 45.1529 28.9366 44.3256 29.1761 43.5466C29.379 42.8867 30.0783 42.5162 30.7382 42.7191C31.3981 42.9219 31.7686 43.6213 31.5658 44.2812C31.3979 44.8272 31.3066 45.4071 31.3066 46.0091C31.3066 49.2533 33.9364 51.883 37.1805 51.883C40.4246 51.883 43.0544 49.2533 43.0544 46.0091C43.0544 42.765 40.4246 40.1353 37.1805 40.1353C36.5785 40.1353 35.9986 40.2265 35.4526 40.3944C34.7927 40.5972 34.0933 40.2267 33.8904 39.5668C33.6876 38.9069 34.0581 38.2076 34.718 38.0047Z" fill="#01517F"/>
<path fill-rule="evenodd" clip-rule="evenodd" d="M37.1809 16.25C31.0826 16.25 26.1387 21.1939 26.1387 27.2922V28.4097C26.1387 29.1 25.579 29.6597 24.8887 29.6597C24.1983 29.6597 23.6387 29.1 23.6387 28.4097V27.2922C23.6387 19.8132 29.7019 13.75 37.1809 13.75C44.6598 13.75 50.723 19.8132 50.723 27.2922V28.4097C50.723 29.1 50.1634 29.6597 49.473 29.6597C48.7827 29.6597 48.223 29.1 48.223 28.4097V27.2922C48.223 21.1939 43.2791 16.25 37.1809 16.25Z" fill="#01517F"/>
</svg>
