<svg width="74" height="74" viewBox="0 0 74 74" fill="none" xmlns="http://www.w3.org/2000/svg">
<path d="M25.8335 1.42229C3.60991 5.45932 -3.16655 26.7101 1.29923 48.2203C5.76501 69.7306 23.1481 76.9696 45.3717 72.9326C67.5953 68.8956 77.4112 44.2058 72.9454 22.6955C68.4796 1.18525 48.0571 -2.61474 25.8335 1.42229Z" fill="#F4F8F9"/>
<path d="M43.1902 17.9524L43.1902 56.0477C43.1902 58.1429 41.4759 59.8572 39.3807 59.8572L19.9521 59.8572C17.8569 59.8572 16.1426 58.1429 16.1426 56.0477L16.1426 17.9524C16.1426 15.8572 17.8569 14.1429 19.9521 14.1429L39.3807 14.1429C41.4759 14.1429 43.1902 15.8572 43.1902 17.9524Z" fill="#EBF9FC"/>
<path d="M43.1902 17.9523L43.1902 25.5713C43.1902 27.6666 41.4759 29.3809 39.3807 29.3809L19.9521 29.3809C17.8569 29.3809 16.1426 27.6666 16.1426 25.5713L16.1426 17.9523C16.1426 15.857 17.8569 14.1428 19.9521 14.1428L39.3807 14.1428C41.4759 14.1428 43.1902 15.857 43.1902 17.9523Z" fill="#85EBFF"/>
<path d="M44.3333 35.0952L44.3333 56.0476C44.3333 58.7905 42.1238 61 39.381 61L19.9524 61C17.2095 61 15 58.7905 15 56.0476L15 33.1905C15 30.4476 17.2095 28.2381 19.9524 28.2381C20.6 28.2381 21.0952 28.7333 21.0952 29.381C21.0952 30.0286 20.6 30.5238 19.9524 30.5238C18.4667 30.5238 17.2857 31.7048 17.2857 33.1905L17.2857 56.0476C17.2857 57.5333 18.4667 58.7143 19.9524 58.7143L39.381 58.7143C40.8667 58.7143 42.0476 57.5333 42.0476 56.0476L42.0476 35.0952C42.0476 34.4476 42.5429 33.9524 43.1905 33.9524C43.8381 33.9524 44.3333 34.4476 44.3333 35.0952Z" fill="#01517F"/>
<path d="M27.9522 29.3811C27.9522 30.0287 27.457 30.5239 26.8093 30.5239L24.9046 30.5239C24.257 30.5239 23.7617 30.0287 23.7617 29.3811C23.7617 28.7334 24.257 28.2382 24.9046 28.2382L26.8093 28.2382C27.457 28.2382 27.9522 28.7334 27.9522 29.3811Z" fill="#01517F"/>
<path d="M35.1905 29.3811C35.1905 30.0287 34.6952 30.5239 34.0476 30.5239L32.1429 30.5239C31.4952 30.5239 31 30.0287 31 29.3811C31 28.7334 31.4952 28.2382 32.1429 28.2382L34.0476 28.2382C34.6952 28.2382 35.1905 28.7334 35.1905 29.3811Z" fill="#01517F"/>
<path d="M44.3333 17.9525L44.3333 25.5715C44.3333 28.3144 42.1238 30.5239 39.381 30.5239C38.7333 30.5239 38.2381 30.0287 38.2381 29.3811C38.2381 28.7334 38.7333 28.2382 39.381 28.2382C40.8667 28.2382 42.0476 27.0573 42.0476 25.5715L42.0476 17.9525C42.0476 16.4668 40.8667 15.2858 39.381 15.2858L19.9524 15.2858C18.4667 15.2858 17.2857 16.4668 17.2857 17.9525L17.2857 23.6668C17.2857 24.3144 16.7905 24.8096 16.1429 24.8096C15.4952 24.8096 15 24.3144 15 23.6668L15 17.9525C15 15.2096 17.2095 13.0001 19.9524 13.0001L39.381 13.0001C42.1238 13.0001 44.3333 15.2096 44.3333 17.9525Z" fill="#01517F"/>
<path d="M25.0957 53.343C25.0957 55.4383 25.5528 57.4573 26.3909 59.2478L26.6195 59.4764L40.1814 57.8002C40.4481 57.2668 40.6386 56.6573 40.6386 56.0097V39.324C40.1814 39.2859 39.6862 39.2478 39.1909 39.2478C31.4195 39.2478 25.0957 45.5716 25.0957 53.343Z" fill="#CADFE3"/>
<path d="M36.1419 44.2381C35.8371 44.2381 35.5324 44.1238 35.3419 43.8953C35.3038 43.8572 35.2276 43.781 35.1895 43.7048C35.1514 43.6286 35.1133 43.5905 35.0752 43.5143C35.0371 43.4381 35.0371 43.3619 34.999 43.2857C34.999 43.2095 34.9609 43.1334 34.9609 43.0572C34.9609 42.981 34.9609 42.9048 34.999 42.8286C34.999 42.7524 35.0371 42.6762 35.0752 42.6C35.1133 42.5238 35.1514 42.4857 35.1895 42.4095C35.2276 42.3334 35.2657 42.2953 35.3419 42.2191C35.7609 41.8 36.5228 41.8 36.9419 42.2191C36.98 42.2572 37.0562 42.3334 37.0943 42.4095C37.1324 42.4857 37.1705 42.5238 37.2086 42.6C37.2467 42.6762 37.2467 42.7524 37.2847 42.8286C37.2847 42.9048 37.3228 42.981 37.3228 43.0572C37.3228 43.1334 37.3228 43.2095 37.2847 43.2857C37.2847 43.3619 37.2467 43.4381 37.2086 43.5143C37.1705 43.5905 37.1324 43.6667 37.0943 43.7048C37.0562 43.781 37.0181 43.8191 36.9419 43.8953C36.7514 44.1238 36.4467 44.2381 36.1419 44.2381Z" fill="#9EB9D3"/>
<path d="M57.096 60.9999C57.0198 60.9999 56.9436 60.9999 56.8674 60.9618C56.7912 60.9618 56.715 60.9237 56.6389 60.8856C56.5627 60.8475 56.5246 60.8094 56.4484 60.7713C56.3722 60.7332 56.3341 60.6951 56.2579 60.6189C56.2198 60.5808 56.1436 60.5046 56.1055 60.4284C56.0674 60.3522 56.0293 60.3141 55.9912 60.2379C55.9531 60.1618 55.9531 60.0856 55.915 60.0094C55.915 59.9332 55.877 59.857 55.877 59.7808C55.877 59.476 55.9912 59.1713 56.2198 58.9808C56.2579 58.9427 56.3341 58.8665 56.4103 58.8284C56.4865 58.7903 56.5246 58.7522 56.6008 58.7141C56.677 58.676 56.7531 58.676 56.8293 58.6379C56.9817 58.5999 57.1341 58.5999 57.2865 58.6379C57.3627 58.6379 57.4389 58.676 57.515 58.7141C57.5912 58.7522 57.6674 58.7903 57.7055 58.8284C57.7817 58.8665 57.8198 58.9046 57.896 58.9808C57.9341 59.0189 58.0103 59.0951 58.0484 59.1713C58.0865 59.2475 58.1246 59.2856 58.1627 59.3618C58.2008 59.4379 58.2008 59.5141 58.2389 59.5903C58.2389 59.6665 58.277 59.7427 58.277 59.8189C58.277 60.1237 58.1627 60.4284 57.9341 60.6189C57.7055 60.8856 57.4008 60.9999 57.096 60.9999Z" fill="#01517F"/>
<path d="M39.2662 38.9048C36.5382 38.9048 33.922 39.9885 31.9931 41.9174C30.0641 43.8463 28.9805 46.4626 28.9805 49.1905C28.9805 51.9184 30.0641 54.5347 31.9931 56.4636C33.922 58.3925 36.5382 59.4762 39.2662 59.4762C41.9941 59.4762 44.6103 58.3925 46.5393 56.4636C48.4682 54.5347 49.5519 51.9184 49.5519 49.1905C49.5519 46.4626 48.4682 43.8463 46.5393 41.9174C44.6103 39.9885 41.9941 38.9048 39.2662 38.9048Z" fill="#FFC700"/>
<path d="M49.4387 50.3336C49.0958 45.6479 45.6291 41.8003 41.0958 40.9622C36.3339 41.8383 32.7148 46.0288 32.7148 51.0574C32.7148 54.6764 34.5815 57.8383 37.3625 59.6669C37.9339 59.7812 38.5434 59.8193 39.191 59.8193C44.6006 59.8193 49.0577 55.6288 49.4387 50.3336Z" fill="#F5B31A"/>
<path d="M39.2665 60.6191C32.9807 60.6191 27.8379 55.4762 27.8379 49.1905C27.8379 42.9048 32.9807 37.762 39.2665 37.762C45.5522 37.762 50.695 42.9048 50.695 49.1905C50.695 55.4762 45.5522 60.6191 39.2665 60.6191ZM39.2665 40.0477C34.2379 40.0477 30.1236 44.162 30.1236 49.1905C30.1236 54.2191 34.2379 58.3334 39.2665 58.3334C44.295 58.3334 48.4093 54.2191 48.4093 49.1905C48.4093 44.162 44.295 40.0477 39.2665 40.0477Z" fill="#01517F"/>
<path d="M40.5614 49.6476C40.3329 49.4953 40.0662 49.381 39.7995 49.3048C39.571 49.2286 39.3424 49.1524 39.0757 49.1143C38.8472 49.0381 38.6567 49 38.4281 48.8857C38.2757 48.8095 38.1233 48.7334 38.0091 48.6191C37.8948 48.5429 37.8186 48.3905 37.7424 48.2762C37.7424 48.1619 37.6662 47.9714 37.6662 47.6667C37.6662 47.5143 37.7043 47.3238 37.7424 47.1714C37.7805 47.0191 37.8948 46.8667 38.0091 46.7524C38.1233 46.6381 38.2757 46.5238 38.4662 46.4476C38.6567 46.3714 38.8852 46.3334 39.1519 46.3334C39.4186 46.3334 39.6472 46.3714 39.8376 46.4476C40.0281 46.5238 40.1424 46.6381 40.2567 46.7524C40.371 46.9048 40.4472 47.0572 40.5233 47.2095C40.5995 47.4 40.79 47.5143 41.0186 47.4762C41.2091 47.4 41.3233 47.2095 41.2852 46.981C41.2091 46.7143 41.0567 46.4476 40.8662 46.2572C40.6757 46.0286 40.4472 45.8762 40.1805 45.7238C39.99 45.6476 39.7995 45.5714 39.571 45.5714V45.3048C39.571 45.0762 39.3805 44.9238 39.19 44.9238C38.9995 44.9238 38.8091 45.1143 38.8091 45.3048V45.5714C38.5805 45.6095 38.39 45.6476 38.1995 45.7238C37.9329 45.8381 37.6662 45.9905 37.4757 46.2191C37.2852 46.4095 37.1329 46.6381 37.0567 46.9048C36.9805 47.1334 36.9043 47.4 36.9043 47.6667C36.9043 48.0476 36.9424 48.3524 37.0567 48.581C37.171 48.8476 37.3233 49.0381 37.5138 49.1905C37.7043 49.3429 37.9329 49.4953 38.1614 49.5714C38.39 49.6476 38.6186 49.7619 38.8852 49.8C39.1138 49.8762 39.3424 49.9143 39.571 49.9905C39.7995 50.0667 39.9519 50.1429 40.1424 50.2572C40.2948 50.3714 40.4472 50.4857 40.5233 50.6762C40.6376 50.8286 40.6757 51.0572 40.6757 51.3619C40.6757 51.5524 40.6376 51.7429 40.5995 51.9333C40.5614 52.1238 40.4472 52.2762 40.3329 52.3905C40.2186 52.5048 40.0662 52.6191 39.9138 52.6953C39.7233 52.7714 39.5329 52.8095 39.2662 52.8095C39.0376 52.8095 38.8472 52.7714 38.6567 52.7334C38.4662 52.6572 38.3138 52.581 38.1614 52.4667C38.0091 52.3524 37.8948 52.1619 37.7805 51.9333C37.7043 51.7429 37.4757 51.6667 37.2852 51.7429C37.0948 51.8191 37.0186 52.0476 37.0948 52.2381C37.2472 52.5429 37.3995 52.8095 37.6281 53.0381C37.8567 53.2286 38.1233 53.381 38.39 53.4953C38.5043 53.5334 38.6186 53.5714 38.7329 53.5714V53.8762C38.7329 54.1048 38.9233 54.2572 39.1138 54.2572C39.3043 54.2572 39.4948 54.0667 39.4948 53.8762V53.6095C39.7233 53.5714 39.9519 53.5333 40.1424 53.4572C40.4472 53.3429 40.6757 53.1905 40.8662 52.9619C41.0567 52.7334 41.2091 52.5048 41.2852 52.2381C41.3614 51.9714 41.3995 51.7048 41.3995 51.4381C41.3995 51.0191 41.3233 50.6381 41.1329 50.3714C41.0567 50.0286 40.8281 49.8 40.5614 49.6476Z" fill="#01517F"/>
<path d="M46.8092 39.0952C45.4584 39.0952 44.1209 39.3613 42.873 39.8782C41.6251 40.3951 40.4912 41.1527 39.5361 42.1078C38.5809 43.0629 37.8233 44.1968 37.3064 45.4448C36.7895 46.6927 36.5234 48.0302 36.5234 49.3809C36.5234 50.7317 36.7895 52.0692 37.3064 53.3171C37.8233 54.565 38.5809 55.6989 39.5361 56.654C40.4912 57.6091 41.6251 58.3668 42.873 58.8837C44.1209 59.4006 45.4584 59.6666 46.8092 59.6666C48.1599 59.6666 49.4974 59.4006 50.7453 58.8837C51.9932 58.3668 53.1271 57.6091 54.0822 56.654C55.0374 55.6989 55.795 54.565 56.3119 53.3171C56.8288 52.0692 57.0949 50.7317 57.0949 49.3809C57.0949 48.0302 56.8288 46.6927 56.3119 45.4448C55.795 44.1968 55.0374 43.0629 54.0822 42.1078C53.1271 41.1527 51.9932 40.3951 50.7453 39.8782C49.4974 39.3613 48.1599 39.0952 46.8092 39.0952Z" fill="#FFC700"/>
<path d="M46.8094 60.8095C40.5237 60.8095 35.3809 55.6667 35.3809 49.381C35.3809 43.0952 40.5237 37.9524 46.8094 37.9524C53.0951 37.9524 58.238 43.0952 58.238 49.381C58.238 55.6667 53.0951 60.8095 46.8094 60.8095ZM46.8094 40.2381C41.7809 40.2381 37.6666 44.3524 37.6666 49.381C37.6666 54.4095 41.7809 58.5238 46.8094 58.5238C51.838 58.5238 55.9523 54.4095 55.9523 49.381C55.9523 44.3524 51.838 40.2381 46.8094 40.2381Z" fill="#01517F"/>
<path d="M46.7722 54.7525C46.2769 54.7525 45.896 54.4097 45.8198 53.9525C45.4769 53.8383 45.1341 53.6478 44.8674 53.3811C44.6007 53.1145 44.3341 52.7716 44.1817 52.3906C43.9531 51.8954 44.1817 51.3621 44.6769 51.1335C45.1341 50.943 45.7436 51.1716 45.9341 51.6287C46.0103 51.7811 46.0865 51.8954 46.1626 51.9716C46.2388 52.0478 46.3531 52.0859 46.4293 52.124C46.696 52.2002 47.0769 52.2002 47.3055 52.124C47.4198 52.0859 47.496 52.0478 47.5341 51.9716C47.6103 51.8954 47.6484 51.8192 47.6865 51.7049C47.7246 51.5906 47.7626 51.4383 47.7626 51.324C47.7626 51.0954 47.7246 50.9811 47.6865 50.943C47.6484 50.8668 47.5722 50.7906 47.4579 50.7145C47.3436 50.6383 47.1912 50.5621 47.0388 50.524C46.8103 50.4478 46.5817 50.4097 46.3531 50.3335C46.0865 50.2573 45.8198 50.1811 45.5912 50.0668C45.2865 49.9526 45.0198 49.8002 44.7912 49.5716C44.5246 49.343 44.3341 49.0764 44.1817 48.7716C44.0293 48.4668 43.9531 48.0478 43.9531 47.5906C43.9531 47.2478 44.0293 46.943 44.1436 46.6383C44.2579 46.3335 44.4484 46.0287 44.6769 45.7621C44.9055 45.4954 45.2103 45.3049 45.5912 45.1526C45.6674 45.1145 45.7817 45.0764 45.8579 45.0764C45.9341 44.6573 46.315 44.3145 46.8103 44.3145C47.2674 44.3145 47.6484 44.6573 47.7626 45.0764C47.8769 45.1145 47.9531 45.1525 48.0674 45.1906C48.4103 45.343 48.715 45.5716 48.9817 45.8764C49.2103 46.143 49.4007 46.4478 49.4769 46.8287C49.5531 47.0573 49.515 47.324 49.4007 47.5525C49.2865 47.7811 49.096 47.9335 48.8293 48.0097C48.7531 48.0478 48.6388 48.0478 48.5246 48.0478C48.1055 48.0478 47.7246 47.7811 47.6103 47.4002C47.5722 47.2859 47.5341 47.2097 47.4579 47.1335C47.4198 47.0573 47.3436 47.0192 47.2293 46.9811C47.0007 46.8668 46.5436 46.8668 46.315 46.9811C46.2007 47.0192 46.1246 47.0954 46.0484 47.1335C45.9722 47.2097 45.9341 47.2859 45.896 47.3621C45.8579 47.4764 45.8579 47.5525 45.8579 47.6668C45.8579 47.9335 45.896 48.0097 45.896 48.0478C45.9341 48.124 45.9722 48.1621 46.0103 48.2002C46.0865 48.2764 46.1626 48.3145 46.2769 48.3526C46.4674 48.4287 46.6579 48.5049 46.8484 48.543C47.115 48.6192 47.3436 48.6954 47.5722 48.7716C47.915 48.8859 48.2198 49.0002 48.4865 49.1906C48.8293 49.4192 49.096 49.6859 49.2865 50.0287C49.515 50.4097 49.6293 50.8668 49.6293 51.4002C49.6293 51.743 49.5912 52.0859 49.4769 52.3906C49.3626 52.7335 49.1722 53.0764 48.9436 53.343C48.6769 53.6097 48.3722 53.8383 48.0293 53.9906C47.915 54.0287 47.8007 54.0668 47.6865 54.1049C47.6103 54.4478 47.2293 54.7525 46.7722 54.7525Z" fill="white"/>
<path d="M53.0185 61.0001H26.3518C25.7042 61.0001 25.209 60.5048 25.209 59.8572C25.209 59.2096 25.7042 58.7144 26.3518 58.7144H53.0185C53.6661 58.7144 54.1614 59.2096 54.1614 59.8572C54.1614 60.5048 53.6661 61.0001 53.0185 61.0001Z" fill="#01517F"/>
</svg>
