<svg width="74" height="74" viewBox="0 0 74 74" fill="none" xmlns="http://www.w3.org/2000/svg">
<path d="M4.23785 49.2673C-6.71005 30.8277 4.89117 13.3978 23.7482 3.93842C42.6053 -5.52097 58.927 2.77049 69.8749 21.2101C80.8228 39.6497 68.5646 61.3042 49.7076 70.7636C30.8505 80.223 15.1857 67.7069 4.23785 49.2673Z" fill="#F4F8F9"/>
<path d="M36.8773 40.272H23.6336C18.7586 40.272 14.7773 36.3314 14.7773 31.4563C14.7773 26.5813 18.7586 22.6001 23.6336 22.6001H36.918" fill="#EBF9FC"/>
<path d="M45.7352 46.8937C45.7352 42.0187 41.7539 40.2718 36.8789 40.2718V22.5999C41.7539 22.5999 45.7352 20.853 45.7352 15.978H47.9289V46.8937H45.7352Z" fill="#F5B31A"/>
<path d="M23.6348 40.272C24.7316 40.272 25.6254 41.1657 25.6254 42.2626V50.7938C25.6254 52.2563 26.7629 53.5157 28.1848 53.5563C29.6879 53.597 30.9066 52.3782 30.9066 50.9157V42.2626C30.9066 41.1657 31.8004 40.272 32.8973 40.272" fill="#F5B31A"/>
<path d="M60.4805 32.6751H56.4992C55.8086 32.6751 55.2805 32.147 55.2805 31.4563C55.2805 30.7657 55.8086 30.2376 56.4992 30.2376H60.4805C61.1711 30.2376 61.6992 30.7657 61.6992 31.4563C61.6992 32.147 61.1711 32.6751 60.4805 32.6751ZM55.4836 28.247C55.118 28.247 54.793 28.0845 54.5492 27.8001C54.1023 27.272 54.1836 26.5001 54.7117 26.0938L57.3523 23.9001C57.8805 23.4532 58.6524 23.5345 59.0586 24.0626C59.5055 24.5907 59.4242 25.3626 58.8961 25.7688L56.2555 27.9626C56.0523 28.1251 55.768 28.247 55.4836 28.247ZM58.1242 39.297C57.8398 39.297 57.5555 39.2157 57.3523 39.0126L54.7117 36.8188C54.1836 36.372 54.143 35.6001 54.5492 35.1126C54.9961 34.5845 55.768 34.5438 56.2555 34.9501L58.8961 37.1438C59.4242 37.5907 59.4649 38.3626 59.0586 38.8501C58.8148 39.1345 58.4898 39.297 58.1242 39.297ZM53.6148 31.4563C53.6148 28.7345 51.7055 26.5001 49.1867 25.9313V15.9782C49.1867 14.7188 48.1711 13.6626 46.8711 13.6626C45.6117 13.6626 44.5555 14.6782 44.5555 15.9782C44.5555 19.5532 41.9961 21.3813 36.918 21.3813H23.6336C18.068 21.3813 13.5586 25.9313 13.5586 31.4563C13.5586 36.9813 18.068 41.4907 23.6336 41.4907C24.0805 41.4907 24.4055 41.8563 24.4055 42.2626V50.7938C24.4055 52.9063 26.0711 54.6938 28.143 54.7751H28.2648C29.2805 54.7751 30.2555 54.3688 30.9867 53.6376C31.718 52.9063 32.1242 51.9313 32.1242 50.9157V45.797C34.2773 45.3095 35.943 43.6438 36.4305 41.4907H36.8773C41.9555 41.4907 44.5148 43.3188 44.5148 46.8938C44.5148 47.0563 44.5555 47.1782 44.5961 47.3001C44.7586 48.397 45.693 49.2501 46.8711 49.2501C48.1305 49.2501 49.1867 48.1938 49.1867 46.8938V36.9813C51.7055 36.4126 53.6148 34.1782 53.6148 31.4563ZM29.6461 42.2626V50.9157C29.6461 51.2813 29.5242 51.6876 29.2398 51.9313C28.9555 52.1751 28.5898 52.3376 28.2242 52.3376H28.1836C27.4117 52.3376 26.8023 51.6063 26.8023 50.7938V42.2626C26.8023 41.9782 26.7617 41.7345 26.7211 41.4907H29.7273C29.6867 41.7345 29.6461 42.0188 29.6461 42.2626ZM32.1242 43.2376V42.2626C32.1242 41.8157 32.4898 41.4907 32.8961 41.4907H33.8711C33.5461 42.3032 32.9367 42.9126 32.1242 43.2376ZM46.7492 44.9845C45.8961 41.2063 42.4023 39.0938 36.8773 39.0938C36.7555 39.0938 23.4711 39.0938 23.3898 39.0938C19.693 38.972 16.6867 36.2501 16.118 32.6751H18.5148C19.1648 32.6751 19.7336 32.147 19.7336 31.4563C19.7336 30.7657 19.2055 30.2376 18.5148 30.2376H16.118C16.1992 29.7907 16.2805 29.3438 16.443 28.9376H19.6117C20.3023 28.9376 20.8305 28.4095 20.8305 27.7188C20.8305 27.0282 20.3023 26.5001 19.6117 26.5001H17.8242C19.2055 24.8751 21.318 23.8188 23.6336 23.8188H35.6992V30.0345C35.6992 30.7251 36.2273 31.2532 36.918 31.2532C37.6086 31.2532 38.1367 30.7251 38.1367 30.0345V23.7782C42.8898 23.4938 45.8961 21.422 46.7492 17.9688V44.9845ZM49.1867 34.422V28.4907C50.3648 28.9782 51.1773 30.1157 51.1773 31.4563C51.1773 32.797 50.3648 33.9345 49.1867 34.422Z" fill="#01517F"/>
</svg>
