<svg width="74" height="74" viewBox="0 0 74 74" fill="none" xmlns="http://www.w3.org/2000/svg">
<path d="M74 41.061C74 63.2399 54.2628 74 32.2564 74C10.25 74 0 58.7277 0 36.5488C0 14.3698 22.5833 0 44.5897 0C66.5962 0 74 18.882 74 41.061Z" fill="#F4F8F9"/>
<path d="M18.8125 40.0375C16.15 37.3375 14.5 33.5875 14.5 29.5C14.5 21.2125 21.2125 14.5 29.5 14.5C37.7875 14.5 44.5 21.2125 44.5 29.5C44.5 37.7875 37.7875 44.5 29.5 44.5H14.5L18.8125 40.0375Z" fill="#31D99C"/>
<path d="M24.9991 45.625H14.4991C14.0491 45.625 13.6366 45.3625 13.4491 44.95C13.2616 44.5375 13.3741 44.05 13.6741 43.7125L17.2366 40C14.7616 37.075 13.3741 33.4 13.3741 29.5C13.3741 20.6125 20.6116 13.375 29.4991 13.375C36.5866 13.375 42.7741 17.9125 44.8741 24.6625C45.0616 25.2625 44.7241 25.9 44.1241 26.0875C43.5241 26.275 42.8866 25.9375 42.6991 25.3375C40.8991 19.525 35.6116 15.625 29.4991 15.625C21.8491 15.625 15.6241 21.85 15.6241 29.5C15.6241 33.175 17.0491 36.625 19.5991 39.25C20.0116 39.7 20.0491 40.375 19.5991 40.825L17.1616 43.375H24.9991C25.6366 43.375 26.1241 43.8625 26.1241 44.5C26.1241 45.1375 25.6366 45.625 24.9991 45.625Z" fill="#01517F"/>
<path d="M55.1875 55.0375C57.85 52.3375 59.5 48.625 59.5 44.5C59.5 36.2125 52.7875 29.5 44.5 29.5C36.2125 29.5 29.5 36.2125 29.5 44.5C29.5 52.7875 36.2125 59.5 44.5 59.5H59.5L55.1875 55.0375Z" fill="#EBF9FC"/>
<path d="M59.5 60.625H44.5C35.6125 60.625 28.375 53.3875 28.375 44.5C28.375 35.6125 35.6125 28.375 44.5 28.375C53.3875 28.375 60.625 35.6125 60.625 44.5C60.625 48.4 59.2375 52.075 56.725 55L60.2875 58.7125C60.5875 59.05 60.7 59.5 60.5125 59.95C60.3625 60.3625 59.95 60.625 59.5 60.625ZM44.5 30.625C36.85 30.625 30.625 36.85 30.625 44.5C30.625 52.15 36.85 58.375 44.5 58.375H56.8375L54.3625 55.825C53.95 55.375 53.95 54.7 54.3625 54.25C56.95 51.625 58.3375 48.175 58.3375 44.5C58.375 36.85 52.15 30.625 44.5 30.625Z" fill="#01517F"/>
<path d="M50.125 43H38.875C38.2375 43 37.75 42.5125 37.75 41.875C37.75 41.2375 38.2375 40.75 38.875 40.75H50.125C50.7625 40.75 51.25 41.2375 51.25 41.875C51.25 42.5125 50.7625 43 50.125 43ZM44.5 48.625H38.875C38.2375 48.625 37.75 48.1375 37.75 47.5C37.75 46.8625 38.2375 46.375 38.875 46.375H44.5C45.1375 46.375 45.625 46.8625 45.625 47.5C45.625 48.1375 45.1375 48.625 44.5 48.625ZM50.125 48.625C49.825 48.625 49.525 48.5125 49.3375 48.2875C49.1125 48.1 49 47.8 49 47.5C49 47.425 49 47.35 49.0375 47.275C49.0375 47.2 49.075 47.125 49.1125 47.05C49.15 46.975 49.1875 46.9375 49.225 46.8625C49.2625 46.7875 49.3 46.75 49.375 46.675C49.6375 46.4125 50.0125 46.3 50.3875 46.375C50.4625 46.375 50.5375 46.4125 50.6125 46.45C50.6875 46.4875 50.7625 46.525 50.8 46.5625C50.875 46.6 50.9125 46.6375 50.95 46.7125C50.9875 46.75 51.0625 46.825 51.1 46.9C51.1375 46.975 51.175 47.0125 51.2125 47.0875C51.25 47.1625 51.25 47.2375 51.2875 47.3125C51.2875 47.3875 51.325 47.4625 51.325 47.5375C51.325 47.8375 51.2125 48.1375 50.9875 48.325C50.95 48.3625 50.875 48.4375 50.8375 48.475C50.7625 48.5125 50.725 48.55 50.65 48.5875C50.575 48.625 50.5 48.625 50.425 48.6625C50.275 48.625 50.2 48.625 50.125 48.625Z" fill="#01517F"/>
</svg>
